<?xml version="1.0" encoding="iso-8859-1"?>
<!-- Uploaded to: SVG Repo, www.svgrepo.com, Generator: SVG Repo Mixer Tools -->
<svg xmlns="http://www.w3.org/2000/svg" xmlns:xlink="http://www.w3.org/1999/xlink" version="1.1" id="Capa_1"  viewBox="0 0 469.999 469.999" xml:space="preserve" width="512" height="512">
<g>
	<path style="fill:#FDCE6E;" d="M234.358,171.04c-120.121,0.355-217.212,98.02-216.857,218.141l434.998-1.284   C452.144,267.775,354.479,170.685,234.358,171.04z"/>
	<path style="fill:#FD7555;" d="M339.404,186.373l0.027,9.142l33.246,252.618l30-0.089c33.137-0.098,59.92-27.04,59.823-60.177   C462.24,300.1,412.307,224.1,339.404,186.373z"/>
	<path style="fill:#FDA162;" d="M432.499,387.956c-0.24-81.198-37.382-152.349-93.069-192.441l0.296,100.215   c0.024,8.284-6.671,15.02-14.956,15.044c-8.284,0.024-15.02-6.672-15.044-14.956l-0.361-122.33   c-18.999-6.57-39.136-10.689-60.036-11.988l0.397,134.495c0.024,8.284-6.671,15.02-14.956,15.044   c-8.284,0.024-15.02-6.672-15.044-14.956l-0.397-134.495c-20.892,1.422-41.003,5.66-59.964,12.342l0.361,122.33   c0.024,8.284-6.671,15.02-14.956,15.044c-8.284,0.024-15.02-6.672-15.044-14.956l-0.323-109.356   C56.724,225.149,7.242,301.443,7.501,389.21c0.098,33.137,27.04,59.92,60.177,59.823l304.999-0.9   C405.813,448.035,432.597,421.093,432.499,387.956z"/>
	<path d="M342.851,179.712c-2.329-1.205-5.116-1.107-7.355,0.26c-1.97,1.203-3.259,3.235-3.534,5.493   c-4.956-2.373-9.994-4.557-15.08-6.548l-0.016-5.451c-0.01-3.188-2.035-6.023-5.049-7.065   c-19.956-6.901-40.822-11.068-62.021-12.386c-2.08-0.13-4.101,0.605-5.609,2.027c-1.509,1.423-2.361,3.406-2.355,5.48l0.006,2.126   c-2.536-0.079-5.042-0.117-7.5-0.109c-2.457,0.007-4.963,0.06-7.5,0.154l-0.006-2.127c-0.006-2.073-0.87-4.052-2.388-5.466   c-1.518-1.413-3.545-2.137-5.621-1.994c-21.189,1.441-42.031,5.731-61.948,12.751c-3.008,1.06-5.017,3.906-5.007,7.095l0.016,5.451   c-5.074,2.021-10.099,4.235-15.041,6.637c-0.289-2.256-1.589-4.281-3.567-5.471c-2.245-1.354-5.035-1.436-7.356-0.217   C47.989,221.264-0.259,301.302,0.001,389.233c0.053,18.029,7.124,34.959,19.911,47.671c12.738,12.663,29.63,19.629,47.583,19.629   H67.7l334.998-0.989c18.029-0.053,34.96-7.124,47.671-19.911c12.712-12.786,19.683-29.758,19.63-47.788   C469.738,299.914,421.019,220.162,342.851,179.712z M439.732,425.057c-9.887,9.945-23.055,15.445-37.078,15.486l-334.998,0.989   h-0.159c-13.963,0-27.102-5.418-37.009-15.268c-9.945-9.886-15.445-23.054-15.486-37.077   C14.77,311.07,55.44,239.603,121.942,199.779l0.285,96.593c0.036,12.384,10.122,22.434,22.499,22.433h0.067   c6.01-0.018,11.653-2.375,15.89-6.637c4.238-4.263,6.562-9.92,6.543-15.931c-0.013-4.134-3.368-7.477-7.5-7.477   c-4.165,0.013-7.513,3.381-7.5,7.523c0.006,2.002-0.769,3.888-2.181,5.309s-3.293,2.206-5.297,2.212   c-4.147,0-7.51-3.35-7.521-7.478l-0.276-93.525c4.9-2.593,9.906-4.989,14.979-7.18l0.031,10.66   c0.012,4.136,3.367,7.479,7.499,7.479c4.165-0.012,7.513-3.38,7.501-7.522l-0.079-26.936c14.58-4.741,29.656-7.939,44.973-9.542   l0.372,126.346c0.036,12.384,10.123,22.434,22.5,22.433h0.067c6.01-0.018,11.653-2.375,15.89-6.637   c4.237-4.263,6.561-9.92,6.543-15.93c-0.013-4.135-3.367-7.478-7.5-7.478c-4.164,0.013-7.512,3.38-7.5,7.522   c0.006,2.003-0.769,3.889-2.181,5.31c-1.412,1.42-3.293,2.206-5.297,2.212c-4.147,0-7.511-3.35-7.522-7.478l-0.346-117.357   c2.54-0.101,5.047-0.157,7.498-0.165c2.449-0.02,4.959,0.023,7.502,0.112l0.257,87.366c0.012,4.135,3.367,7.478,7.5,7.478   c4.164-0.013,7.512-3.38,7.5-7.522l-0.283-96.345c15.326,1.512,30.42,4.621,45.026,9.276l0.346,116.936   c0.018,6.01,2.375,11.653,6.637,15.89c4.246,4.222,9.877,6.544,15.861,6.544h0.068c6.01-0.018,11.653-2.375,15.89-6.637   c4.237-4.263,6.562-9.919,6.544-15.93c-0.013-4.135-3.367-7.478-7.5-7.478c-4.164,0.013-7.512,3.38-7.5,7.522   c0.006,2.003-0.769,3.889-2.181,5.31c-1.413,1.42-3.294,2.206-5.298,2.212c-2.017,0-3.894-0.774-5.31-2.181   c-1.42-1.413-2.206-3.294-2.212-5.298l-0.297-100.659c5.086,2.16,10.106,4.527,15.021,7.091l0.188,63.525   c0.013,4.135,3.367,7.478,7.5,7.478c4.164-0.013,7.512-3.38,7.5-7.522l-0.196-66.593   c66.736,39.431,107.826,110.656,108.058,188.775C455.04,401.912,449.618,415.112,439.732,425.057z"/>
	<circle cx="44.979" cy="381.599" r="7.5"/>
	<circle cx="75.067" cy="411.511" r="7.5"/>
	<circle cx="404.977" cy="380.537" r="7.5"/>
	<path style="fill:#FFCFB2;" d="M244.158,103.511c0.047,15.664,4.542,23.847,8.508,31.065c1.365,2.485,3.932,3.89,6.58,3.89   c1.221,0,2.459-0.299,3.604-0.928c3.63-1.994,4.956-6.554,2.962-10.185c-3.552-6.465-6.619-12.049-6.654-23.888   c-0.035-11.837,3-17.44,6.514-23.928c3.924-7.243,8.37-15.453,8.324-31.116c-0.047-15.663-4.543-23.846-8.51-31.066   c-1.994-3.629-6.554-4.957-10.185-2.961c-3.631,1.994-4.957,6.554-2.962,10.185c3.553,6.466,6.621,12.051,6.656,23.888   s-3,17.44-6.514,23.928C248.559,79.638,244.112,87.848,244.158,103.511z"/>
	<path style="fill:#FFCFB2;" d="M194.158,103.659c0.047,15.663,4.542,23.846,8.508,31.065c1.364,2.485,3.932,3.891,6.58,3.891   c1.221,0,2.459-0.298,3.604-0.928c3.631-1.994,4.957-6.554,2.963-10.184c-3.552-6.467-6.619-12.051-6.654-23.89   c-0.035-11.837,3-17.44,6.514-23.928c3.924-7.243,8.37-15.453,8.324-31.116c-0.047-15.663-4.543-23.846-8.51-31.066   c-1.994-3.63-6.554-4.958-10.185-2.961c-3.631,1.994-4.957,6.554-2.962,10.185c3.553,6.466,6.621,12.051,6.656,23.888   s-3,17.44-6.514,23.928C198.559,79.786,194.112,87.996,194.158,103.659z"/>
</g>















</svg>